<?xml version="1.0" encoding="UTF-8"?>
<svg id="Layer_2" data-name="Layer 2" xmlns="http://www.w3.org/2000/svg" viewBox="0 0 406.24 136.83">
  <defs>
    <style>
      .cls-1 {
        fill: #000;
      }

      .cls-1, .cls-2 {
        stroke-width: 0px;
      }

      .cls-2 {
        fill: #202020;
      }
    </style>
  </defs>
  <g id="Layer_1-2" data-name="Layer 1">
    <g>
      <g>
        <path class="cls-1" d="M76.85,87.02c.02,2.12-2.84,3.68-4.31,4.7-.91.63-1.86,1.15-2.84,1.55-.3.14-.9.48-1.64.89l-.41.4c-1.26,1.2-3.06,1.94-5.4,2.23-1.49.17-2.65.19-3.47.04-.83-.14-1.96-.56-3.39-1.24-2.17-1.03-3.6-1.86-4.29-2.49-.46-.4-.86-.57-1.2-.51-.34.06-.94.43-1.8,1.11-2.86,2.06-6.26,3.22-10.21,3.48-3.95.26-6.52-.53-7.72-2.36-.74-1.14-1.09-3.4-1.03-6.78.06-3.37.49-5.77,1.29-7.2.69-1.26,1.23-2.19,1.63-2.79.4-.6.79-1.17,1.16-1.72.37-.54,1.02-1.36,1.93-2.44,2.91-3.66,5.22-6.14,6.9-7.46,3.69-2.88,10.83-5.62,15.36-3.29,5.81,3,3.49,12.5,1.07,17.35-.8,1.77-1.4,3.7-1.8,5.79-.4,2.09-.4,3.48,0,4.16.92,1.77,3.83,1.89,8.75.34.2-.05.4-.08.61-.08.21-.09.42-.17.6-.27,2.97-1.54,5.32-3,7.04-4.38,1.69-1.3,3.16-1.32,3.19.97ZM53.33,72.21c.05-.2-.06-.44-.35-.73-.57-.57-1.37-.96-2.4-1.16-1.03-.2-2.03-.16-3,.13-.97.23-2.45,1.16-4.42,2.79-1.97,1.63-3.33,3.05-4.07,4.25-.92,1.37-1.69,2.57-2.32,3.6-.8,1.14-1.34,2.79-1.63,4.93s-.17,3.53.34,4.16c.46.57,1.48.86,3.09.86s3.09-.26,4.46-.77c1.37-.63,2.37-1.6,3-2.92,1.2-2.34,2.12-4.12,2.74-5.32,1.2-2.11,1.8-3.54,1.8-4.29,0-.46.2-.93.6-1.42.4-.48.51-1.01.34-1.59-.23-.74.09-1.34.94-1.8.51-.29.8-.53.86-.73Z"/>
        <path class="cls-1" d="M116.62,82.64c0,1.78-.76,2.95-2.28,3.5-1.52.56-4.32.72-8.4.5l-6.78-.34-2.22,4.23c-1.49,2.89-3.13,5-4.95,6.34-1.82,1.33-4.24,2.26-7.28,2.78-3.19.52-5.75.41-7.69-.34-6.52-2.52-8.01-10.12-6.99-16.33,1.21-7.4,3.69-14.57,5.12-22.14.74-3.93,1.59-6.97,2.56-9.12,1.41-3.19,2.48-5.58,3.23-7.17.74-1.59,1.67-3.46,2.78-5.61.88-1.7,1.55-3.44,2.19-5.14,1.7-4.48,3.28-8.67,8.36-11.17,2.39-1.17,5.59-1.59,7.44.32,3.6,3.73,1.47,11.58-.1,15.65-1.85,4.67-3.08,8.12-3.67,10.34-.52,2-1.19,3.71-2,5.12-3.63,6.45-5.52,9.82-5.67,10.12-1.93,3.48-4.52,7.41-7.78,11.79-1.78,2.45-2.93,5.27-3.45,8.45-.52,3.19-.11,5.08,1.22,5.67.07.08.31.21.72.39.41.19.81.37,1.22.56.4.19.76.39,1.06.61.74.37,1.35.54,1.84.5.48-.04,1.13-.31,1.95-.83.89-.67,2.07-2.41,3.56-5.23,1.48-2.82,2.22-4.86,2.22-6.12,0-1.11.46-2.19,1.39-3.22.93-1.04,1.91-1.56,2.95-1.56,1.26,0,2.89,1.08,4.89,3.23,1.04,1.04,1.93,1.76,2.67,2.17.74.41,1.34.61,1.78.61s1.32-.09,2.61-.28c1.29-.19,2.5-.31,3.61-.39,1.26-.15,2.19-.17,2.78-.06.59.11.93.3,1,.56.07.26.11.8.11,1.61ZM81.7,65.06c.45,0,1.22-1.26,2.34-3.78.59-1.11,1.85-3.61,3.78-7.51,1.93-3.89,3.19-6.54,3.78-7.95,1.85-4.45,2.78-6.93,2.78-7.45,0-1.48-1.3-.81-3.89,2-1.63,1.93-2.44,3.19-2.44,3.78,0,.89-.63,2.41-1.89,4.56-.97,1.71-1.91,3.91-2.84,6.62-.93,2.71-1.54,4.93-1.84,6.67-.3,1.74-.22,2.76.22,3.06Z"/>
        <path class="cls-1" d="M154.1,83.62c.01,1.45-.83,2.8-2.5,4.03-.62.45-1.32.88-2.09,1.28-.17.09-.34.19-.5.28-.48.29-.98.58-1.68.62-1.47.09-3.14-.81-4.08-1.69-.44-.41-.74-.94-1.03-1.45l-.21-.36c-.83-1.41-1.5-1.71-2.57-1.15-1.04.55-1.74,2.07-2.36,3.42-.35.75-.68,1.47-1.06,2.02-.9,1.3-1.66,2.03-2.33,2.23-.8.38-1.97,1.05-3.41,1.97-1.8,1.08-3.5,1.66-5.07,1.71-1.82.17-3.18.37-4.03.6-.27.04-.52.07-.76.07-.48,0-.92-.09-1.31-.26-.56-.25-1.36-.87-2.46-1.9-1.15-1.09-1.92-2.02-2.34-2.85-.43-.83-.84-2.24-1.26-4.33-.7-3.35-.88-6.07-.53-8.08.36-2.02,1.4-4.41,3.11-7.12,2.11-3.4,4.15-5.9,6.07-7.43,1.92-1.54,4.31-2.65,7.09-3.3,1.35-.28,2.54-.79,3.54-1.52,1.67-1.05,3.12-1.45,4.34-1.2,1.22.25,2.61,1.2,4.24,2.9.83.95,1.43,1.7,1.79,2.24.37.55.63,1.1.79,1.62.16.53.23,1.27.23,2.24,0,3.29.03,6.5.38,9.68.32,2.91,1.47,3.93,3.53,5.69l.15-.1c.62-.42,1.27-.86,1.87-1.32,1.34-1.03,2.52-1.39,3.34-.99.7.34,1.07,1.16,1.08,2.44ZM134.77,77.63c-.21-.48-.81-1.21-1.76-2.17-1.54-1.54-2.29-2.76-2.29-3.74,0-.64-.22-1.41-.66-2.29-.44-.88-.88-1.49-1.29-1.8-.29-.2-.56-.3-.82-.3-.16,0-.32.04-.48.12-.34.17-1.11.76-2.88,2.6-1.26,1.26-2.45,2.88-3.53,4.82-1.09,1.95-1.9,3.81-2.42,5.52-.5,1.66-.59,2.87-.28,3.61.37.66.58,1.83.64,3.53.11,1.28.29,2.23.54,2.8.23.53.56.88,1.04,1.08.51.21,1.36.32,2.53.32.57,0,1.04-.02,1.42-.04.36-.03.7-.08,1.04-.17.32-.08.63-.2.92-.36.31-.17.64-.37.98-.59.33-.22.72-.52,1.19-.93,1.75-1.41,2.77-2.54,3.04-3.34.24-.9.79-1.86,1.64-2.83.77-.77,1.27-1.97,1.49-3.58h0c.16-1.04.14-1.79-.06-2.25ZM136.29,66.14c-.12.08-.21.18-.28.31-.15.25-.33.91.03,2.88.25,1.37.47,1.86.58,2.04.08-.21.21-.78.21-2.28,0-2.13-.32-2.84-.55-2.95Z"/>
        <path class="cls-1" d="M201.87,86.41c.02,2.56-3.44,4.46-5.22,5.68-1.11.76-4.75,3.16-5.16,3.63-.55.55-3.44,1.4-4.63,1.43-2.51,1.01-6.29-.67-6.69-.86-1.25-.59-2.98-1.92-5.2-4l-2.7-2.6-3.53,2.6c-2.42,1.66-5.05,2.66-7.89,3.01-6.94.71-14.61-3.19-12.97-11.26,1.18-5.79,6.57-13.15,10.79-17.2,1.8-1.73,3.26-2.6,4.36-2.6.49,0,1.18.45,2.08,1.35.62.69.92,1.25.88,1.66s-.4,1.28-1.09,2.6c-5.75,11.22-7.24,17.31-4.47,18.28l.52.1c1.93.28,4.59-1.31,7.94-4.78,3.36-3.46,5.69-6.96,7.01-10.49.97-2.35,2.15-4.5,3.53-6.44,1.24-1.66,2.14-2.6,2.7-2.8.55-.21,1.59.07,3.11.83,1.32.69,2.01,1.49,2.08,2.39.07.9-.42,2.32-1.46,4.26-.48.83-.9,1.73-1.25,2.7-.35.97-.6,1.8-.78,2.49-.18.69-.42,1.65-.73,2.86-.31,1.22-.57,2.17-.78,2.86-.48,2.01-.73,3.88-.73,5.61s.28,2.88.83,3.42c.48.47,1.5.77,3.07.88,1.43-.55,2.94-.97,3.96-1.5,3.6-1.87,6.44-3.63,8.52-5.3,2.05-1.58,3.83-1.6,3.86,1.18Z"/>
        <path class="cls-1" d="M236.92,87.74c-.25,2.55-3.89,4.07-5.79,5.1-1.18.64-2.38,1.14-3.62,1.5-.48.16-5.86,3.96-8.95,4.98-4.28,1.42-11.68,2.56-15.38-.75-4.5-4.02-4.55-14.58-4.02-20.06.09-.9,2.91-22.42,2.86-22.45-.9-.55-2-.62-3.15-.69-.93-.06-1.88-.08-2.86-.04-2.3.03-3.93-.04-4.89-.21-.96-.17-3.98.26-4.07-.48-.09-.74.19-1.28.85-1.63.72-.27,3.81-3.04,8.65-2.73,3.52.31,5.7.4,6.55.28s1.7-.62,2.56-1.5c1.24-1.19,2.92-4.24,5.05-9.17,2.3-5.33,5.52-13.38,11.13-16.11,10.64-5.18,3.89,5.92,2.04,11.25-.3.87-.55,1.89-.75,3.05-.19,1.16-.63,2.34-1.32,3.51-1.02,1.77-1.97,3.41-2.83,4.92-.87,1.58-1.18,2.52-.93,2.83.24.37,2.6.8,7.07,1.28,3.1.33,4.98.6,5.66.81.67.21.97.66.9,1.35-.09.89-.62,1.26-1.58,1.09-.35-.04-1.08-.04-2.19-.03-1.11.02-2.38.08-3.78.17-1.4.09-2.84.24-4.33.42-1.48.19-2.72.33-3.7.44-1.7.24-5.02,17.3-6.99,23.29-2.37,7.13-2.05,12.04.93,14.72,1.33,1.19,2.59,1.78,3.78,1.76.72,0,1.5-.28,2.33-.77.49-.78,7.44-3.12,7.99-3.33,3.78-1.47,6.79-2.93,9.04-4.37,2.21-1.35,3.98-1.18,3.71,1.58Z"/>
        <path class="cls-1" d="M330.16,85.15c.03,2.56-3.44,4.46-5.22,5.69-.76.52-3.39,2.46-4.21,3.11-1.84,1.45-3.73,2.46-5.66,3.01-2.28.69-4.07,1.06-5.35,1.09-1.28.04-2.89-.22-4.83-.78-1.8-.48-3.26-1.11-4.36-1.87-1.11-.76-1.96-1.75-2.55-2.96-.59-1.21-.9-2.73-.93-4.57-.04-1.83.17-3.93.62-6.28.45-2.35,1.16-5.23,2.13-8.62.28-.83.17-1.25-.31-1.25-1.24,0-3.69,2.23-7.32,6.7-3.64,4.47-6.46,8.67-8.47,12.62-1.38,2.7-2.54,4.33-3.48,4.88-.93.55-1.99.28-3.17-.83-.97-.9-1.44-1.75-1.4-2.54.04-.79.64-2.54,1.82-5.25.97-1.94,1.45-3.29,1.45-4.05,0-.62.48-1.97,1.45-4.05.69-2.35.9-3.6.62-3.74-.49,0-1.49.83-3.01,2.49-1.52,1.66-3.12,3.65-4.78,5.97-1.66,2.32-2.91,4.28-3.74,5.87-1.32,2.42-2.51,3.96-3.58,4.62-1.07.66-2.13.5-3.17-.47-1.04-.9-1.44-2.04-1.19-3.43.24-1.38,1.16-3.64,2.75-6.75,1.43-2.79,1.44-5.78,2.65-8.33,1.17-2.47,2.88-5.38,5.06-7.09,1.45-1.14,4.77-2.72,3.71,1-.41,1.45-.24,2.11.52,1.97.55-.07,1.21-.69,1.97-1.87,1.04-1.66,2.28-3.01,3.74-4.05.55-.35,1.02-.6,1.4-.78.38-.17.69-.31.93-.42.24-.1.57-.14.99-.1.42.03.71.07.88.1.17.04.55.14,1.14.31.59.17,1.06.3,1.4.37,1.31.28,1.97.66,1.97,1.14.07.07.14.76.21,2.08.07.62.17,1.07.31,1.35.14.27.42.4.83.36.42-.03.93-.21,1.56-.52s1.52-.85,2.7-1.61c2.84-1.8,5.26-2.84,7.27-3.12,1.45-.14,2.37-.1,2.75.1.38.21.78.76,1.2,1.66.55,1.45.67,3.31.36,5.56-.31,2.25-.92,4.35-1.82,6.29-1.04,1.94-1.56,3.43-1.56,4.47,0,.83-.24,2.08-.73,3.74-.55,1.39-.49,2.69.21,3.9s1.77,1.96,3.22,2.23c.83.14,1.92.07,3.27-.21.31-.06,5.07-2.04,6.77-2.76.29-.18,7.65-4.4,9.08-5.55,2.05-1.58,3.83-1.6,3.86,1.18Z"/>
        <path class="cls-1" d="M363.25,87.96c.03,2.56-3.44,4.46-5.22,5.68-1.11.76-2.25,1.38-3.44,1.87-.36.17-2.07.85-2.07.84-2.84,1.15-5.89,1.83-9.17,2.01-2.41.14-5.18.24-7.39-.88-1.57-.79-3.59-1.46-5.02-2.43-1.54-1.05-2.35-2.85-3.09-4.56-1.5-3.46-2.72-7.26-2.72-11.14,0-1.97.35-4.55,1.04-7.74.52-2.22,1.13-5.53,2.42-7.38.72-1.03,1.45-2.07,2.33-2.97,2.51-2.57,6.04-3.75,9.59-3.46,2.5.2,6.11.99,6.56,3.96,1.18,7.86-4.48,13.53-7.91,19.92-2.08,3.88-3.12,6.2-3.12,6.96,0,.62.59,1.49,1.77,2.6.76.69,1.44,1.11,2.03,1.25.59.14,1.64.07,3.17-.21,2.42-.35,5.05-.94,7.89-1.77,1.95-.62,7.48-2.93,8.5-3.75,2.05-1.58,3.83-1.6,3.85,1.17ZM335.68,76.36c1.9-3.64,2.85-5.83,2.85-6.6,0-.9-.49-1.47-1.45-1.71-.97-.24-1.73-.02-2.28.67-.49.56-.96,1.39-1.4,2.49-.45,1.11-.82,2.25-1.09,3.43-.28,1.18-.5,2.3-.68,3.38-.17,1.07-.21,1.97-.1,2.7.1.73.33,1.09.67,1.09.42,0,1.58-1.82,3.49-5.45Z"/>
      </g>
      <g>
        <path class="cls-2" d="M120.07.23l2.4.17c-.04-.08-.64-.15-2.4-.17Z"/>
        <path class="cls-2" d="M134.31,130.64c-.19.01-.4.03-.57.04.4-.02.53-.03.57-.04Z"/>
        <path class="cls-2" d="M212.73,10.32c-.05,0-.09,0-.13-.01-.2,0-.44,0-.62-.01l.75.03Z"/>
        <path class="cls-2" d="M91.11,6.14c15.93-.52,26.07-.12,36.31.04,5.13.15,10.28.32,16.23.43,2.97.09,6.14.19,9.6.3,1.73.04,3.53.09,5.42.14,1.89.07,3.86.14,5.93.22,15.78.7,32.6,1.72,47.99,3.05,7.36,0,20.18,2,28.85,2.54l3.29.77c2.99.2,6.49.48,9.44,1.1l-.2.08c4.46.35,9.42,1.22,11.64,1.4l-.2.08c1.79.23,3.58.49,5.37.76h-.94c3.87.47,7.79,1,11.61,1.58,3.82.58,7.53,1.29,11,1.95l-.5-.53c7.42,1.49,12.5,2.42,17.41,3.24,4.92.8,9.63,1.74,16.26,3.39l-.2.07c4.29.56,8.07,1.35,11.63,2.14,3.55.81,6.89,1.6,10.21,2.53,3.33.9,6.67,1.81,10.27,2.68,3.57.85,7.37,1.75,11.66,2.76-2.12-.5.82.49.62.53,3.83,1.14,7.63,2.61,10.43,3.86,2.82,1.23,4.66,2.22,4.95,1.9,1.2.76,1.98,1.39,2.52,1.84.55.44.85.74,1.01.97.33.43.18.49.34.85.22-.34,4.07,2.77,6.22,6.58-.36-.56-.79-1.07-1.21-1.59,2.42,3.33,3.95,7.29,4.92,11.44.04-.86.08-1.75.06-2.62.42,1.66.53,2.63.56,3.23.04.59-.02.82-.07,1.03-.11.43-.1.78.4,4.04l.57-.15c.48,4.77.34,8.7.1,12.47-.3,3.74-.78,7.42-2.17,11.41-.68,2.07-1.58,4.01-2.86,5.67-1.27,1.67-2.92,3.14-4.79,4.47-1.87,1.33-3.95,2.52-6.14,3.68-2.21,1.13-4.42,2.26-6.63,3.39-8.96,4.34-18.32,7.97-27.84,10.9-9.52,2.92-19.18,5.14-28.74,6.72-9.56,1.56-19.01,2.45-28.13,2.84l-1.64-.33c-.37-.31-2.86.15-5.45.49-2.59.36-5.27.73-5.97.47l-4.24.41c-1.2-.09-3.72-.15-1.6-.34-3.93.08-4.02.15-6.85.37l-4.22-.38c-15.5-.4-28.75-.24-45.11-1.37-9.81-.99-23.98-1.99-38.42-2.71-14.43-.74-29.14-1-39.88-.86-7.55.13-15.42.29-23.45.5-8.02.24-16.17.57-24.29.63-16.21.14-32.39-1.04-46.41-5.86-.89-.38-3.25-1.2-3.26-1.12-8.29-3.61-15.96-8.74-21.77-15.48,0,0-.31-.39-.89-1.11-.29-.36-.64-.8-1.05-1.31-.41-.51-.8-1.15-1.28-1.83-1.87-2.74-4.15-6.79-5.66-11.87-.19-.63-.38-1.28-.58-1.93-.15-.67-.31-1.34-.47-2.03-.35-1.35-.54-2.79-.81-4.23-.42-2.9-.76-5.91-.95-8.95-.42-6.06-.54-12.19-.96-17.54-.38-5.35-1.13-9.9-1.87-12.83-.82-2.92-1.4-4.21-1.57-3.25-.21.97.19,4.18.26,10.37.02,3.1-.04,6.93-.21,11.63-.14,4.7-.42,10.27-.15,16.9l-.2-.7c.3,3.93.71,7.54,1.49,10.85.16.83.37,1.64.6,2.43.23.79.43,1.57.67,2.33.27.75.54,1.48.81,2.21.13.36.27.72.4,1.08.15.35.32.69.47,1.03,2.48,5.5,5.77,9.89,9.8,13.68.15.46.74,1.35,1.74,2.3.49.49,1.05,1.03,1.65,1.59.6.56,1.31,1.08,2,1.64,1.37,1.14,2.92,2.13,4.24,3.07,1.36.89,2.57,1.62,3.32,2.19l-.34-.13c4.34,2.24,8.79,4.5,13.4,6.34,4.59,1.84,9.35,3.26,13.99,3.81-.37,0-.61.23-2.72-.22,6.69,1.45,15.9,1.9,16.37,2.43,8.05.5,17.65.38,26.41-.1,8.78-.47,16.75-1.08,21.76-1.6l-.68.16c2.86-.35,4.71-.42,6.65-.45,1.94-.03,3.97.02,7.17-.14.35.06.8.09.73.12,6.25-.55,18.25.13,23.32.15l.32.35c4.15.11,8.31.31,12.46.48l-4.65-.3c1.66-.85,9.39,1.02,18.47,1,8.45.63,17.29-.8,26.06.21,4.22-.16-3.74.46,2.55.53.18.49-2.95.12-1.36.6,6.17.16,10.08,1.11,17.71,1.2l.29.39c9.96-.15,18.74,1.28,25.39.78,10.27-.19,6.89,1.22,17.6.4l4.18.4c4.59-.02,3.27-.71,8.36-.68-.29.35,6.44-.07,3.48.4,11.58-.18,23.31-2.44,38.44-4.31,3.16-1.12,10.73-2.43,13.03-3.43.23.08,3.96-.86,6.61-1.48,1.33-.29,2.36-.59,2.57-.58.2-.02-.41.34-2.47,1-.71.23-1.98.55-1.92.42l-.91.61c4.33-.68,8.11-1.99,11.85-3.26,1.86-.67,3.69-1.44,5.59-2.16.95-.35,1.91-.71,2.88-1.07.97-.38,1.95-.78,2.96-1.16-2.42.86-5.64,1.97-3.57,1,2.51-.9,5-1.9,7.5-2.84l-1.44.89,2.8-1.05,2.76-1.17c1.83-.79,3.69-1.54,5.51-2.37-.54.14-1.11.24-1.66.35,2.71-1.13,4.55-1.9,6.46-2.7,1.91-.83,3.87-1.74,6.69-3.78,1.25-.97-.05-.28-.98.15-.94.41-1.49.69,1.21-1.04,1.75-1.04,3.72-2.35,5.65-4.12,1.93-1.75,3.73-4.11,5-6.72,1.29-2.62,2.08-5.46,2.54-8.24.46-2.78.62-5.51.64-8.07-.43.96-.39-1.81-.6-4.56l.36-.33c-.5-5.31-.48-6.33-.34-7.33.07-.5.11-1.01.04-2.06-.1-1.05-.28-2.67-.99-5.37l.46.91c-.44-.91-.94-1.81-1.43-2.69-1.75-4.73-2.33-5.99-2.83-7.45-.26-.72-.6-1.47-1.3-2.61-.37-.56-.85-1.2-1.46-1.98-.61-.78-1.46-1.62-2.47-2.62,1.48,1.7,1.64,2.25,1.04,1.81-.31-.21-.8-.68-1.43-1.33-.7-.6-1.47-1.47-2.46-2.38.43.2.85.43,1.25.68-1.1-1.04-1.93-1.61-2.6-2.17-.71-.5-1.32-.93-2.09-1.56.77.46,1.03.5.66.09-.36-.42-1.41-1.22-3.29-2.36.92.37,1.81.82,2.73,1.23-2.44-1.42-4.96-2.56-7.5-3.56-2.75-1.55-6.54-2.98-9.9-4.04-3.37-1.07-6.31-1.85-7.45-2.41,0,0-3.16-.9-6.66-1.71-3.51-.83-7.4-1.68-8.91-1.76,2.61.27-4.3-1.52-2.24-1.44-3.36-.37-13.1-2.21-16.89-3.46l.75.11c-14.29-3.41-24.7-4.46-37.58-7.21.52.53-6.29-.89-4.69-.05-3.37-.47-6.59-.97-9.58-1.49-2.99-.55-5.78-1.07-8.3-1.53-5.04-.91-9.04-1.42-11.59-.93-6.14-.79-7.21-1.4-10.38-1.89l1.48.09c-5.76-.66-9.48-1.09-12.83-1.47-3.35-.37-6.33-.7-10.61-1.17-4.29-.31-5.05.41-12.7-.49,2.51-.08-.63-.32-3.5-.59,1.84.12,2.42.06-1.33-.5-.54.05-1.36.03-2.14,0-.03-.03-.18-.06-.1-.09-4.81-.28-3.98-.1-1.76.11-.12.04.07.12.75.26-4.94-.79-13.88-1.05-14.44-1.64-14.45-.82-24.8-.81-36.83-.99-1.34-.32,1.48-.48,4.97-.48l-8.54-.16c.08-.4,4.91-.08,7.54-.08-5.07-.47-10.32-.49-15.78-.46-5.46.11-11.14.14-17.1-.16l-2.47.32-.71-.05c.04.17-2.64.4-4.4.46-1.69-.35.12-.81-5.79-.78-4.67-.3-13.27.35-19.38.78,3.3-.06,2.24.18.83.35-2.95.12-4.67-.16-6.94.1l-.31-.46c1.18.37-7.69.89-8.77,1.19-1.7-.24,4.56-.61,5.28-.9-5.92.37-7.4.51-8.88.62-1.48.13-2.96.22-8.87.82-6.26,1.03,1.19.32-1.78,1.06-2.77.35-5.49.76-8.33,1.23-2.84.48-5.8,1.04-8.97,1.95.7-.09,1.4-.16,2.1-.21-5.12,1.55-8.74,3.93-11.79,6.11-3.06,2.22-5.64,4.35-8.45,6.48-56.74,53.42-9.38,14.25-9.38,14.25,5.95-4.81,11.14-9.18,15.93-13.27,2.37-2,4.64-3.82,6.95-5.33,2.33-1.53,4.63-2.66,7.25-3.51,2.62-.85,5.5-1.42,8.62-1.91,3.14-.48,6.46-.93,9.94-1.34,6.97-.83,14.71-1.5,23.77-1.95Z"/>
      </g>
    </g>
  </g>
</svg>