<?xml version="1.0" encoding="UTF-8"?>
<svg id="Layer_2" data-name="Layer 2" xmlns="http://www.w3.org/2000/svg" viewBox="0 0 236.28 147.37">
  <defs>
    <style>
      .cls-1 {
        fill: #000;
      }

      .cls-1, .cls-2 {
        stroke-width: 0px;
      }

      .cls-2 {
        fill: #202020;
      }
    </style>
  </defs>
  <g id="Layer_1-2" data-name="Layer 1">
    <g>
      <g>
        <path class="cls-1" d="M78.89,86.01c.03,2.56-3.44,4.46-5.22,5.68-1.11.76-2.25,1.38-3.44,1.87-.17.07-.42.21-.71.37-1.01,1.06-2.08,2.07-3.41,2.65-1.15.51-2.41.65-3.68.69-1.42.43-2.64.5-3.31-.08-2.75-.26-5.79-.87-8.17.42-.63.34-1.41.49-2.34.47-.94-.03-2.54-.21-4.81-.55-1.36-.18-2.73-.35-4.1-.49-.64-.06-1.92.09-2.46-.26-.92-.6-1.57-2.85-1.9-3.83-.42-1.25-.69-2.55-.8-3.86-.04-.46-.06-.94.04-1.39.15-.75.46-1.77,1.11-2.13.69-.39,1.51-.17,2.2-.76.49-.42.78-1.02,1-1.62.29-.79.46-1.62.51-2.46.03-.5.03-1.02.26-1.46.41-.77,1.3-.95,1.93-1.46.62-.5,1.1-1.2,1.44-1.93.56-1.23.82-2.58,1.17-3.88.48-1.76.89-3.53,1.23-5.32.34-1.79.57-3.31.68-4.56.23-2.89.54-4.59.94-5.11.4-.51,1.15-.75,2.26-.72,1.11.03,2.06.33,2.85.89,1.6,1.14,2.07,4.03,2.66,5.83.75,2.29,1.39,4.63,1.82,7,.7,3.85.73,7.97,2.11,11.68.77,2.06,1.1,3.38.76,5.56-.47,2.91-.44,6.03,3.35,5.71,2.7-.23,4.57-2.02,6.48-3.74,1.81-1.63,3.78-2.88,5.72-4.37,2.05-1.58,3.83-1.6,3.86,1.18ZM51.98,78.71c-1.13-3.4-1.85-5.11-2.13-5.11-.34,0-.62.65-.85,1.96-.28,1.19-.62,2.07-1.02,2.64-.57.8-1.46,2.48-2.68,5.07-1.22,2.58-1.75,4.02-1.57,4.3.23.34.69.7,1.4,1.06.71.37,1.48.65,2.3.85.82.2,1.52.24,2.09.13,2.1-.45,3.33-1.49,3.7-3.11.37-1.62-.04-4.21-1.24-7.79Z"/>
        <path class="cls-1" d="M123.16,88.53c.03,2.56-3.44,4.46-5.22,5.68-.12.08-.25.15-.37.23-.36.26-.74.5-1.03.7-1.36.99-2.68,1.8-4.29,2.28-1.53.46-3.09.67-4.67.83-4.78.49-8.33-.62-10.64-3.32s-3.96-7.65-4.93-14.85c-.28-2.28-.59-3.43-.94-3.43-.28,0-1.94,1.32-4.98,3.95-1.73,1.59-2.96,2.86-3.69,3.79-1.25,1.25-1.76,3.7-2.43,5.3-.33.77-.65,1.55-.98,2.32-.36.85-.72,1.71-1.08,2.56-.85,2.03.29,4.95-2.62,5.39-1.59.25-2.98-.46-4.16-2.13-.76-1.04-1.16-1.82-1.2-2.34-.04-.52.22-1.47.78-2.86.13-.28.26-.57.36-.88,1.19-3.55,1.97-6.18,3.88-9.57,2.28-4.06,1.8-8.63,2.87-12.96,1.17-4.75,2.99-9.65,4.72-14.23,2.77-7.33,3.63-23.99,13.57-26.49,8.35-2.1,6.8,9.37,5.66,13.75-.49,1.73-1.3,3.76-2.44,6.07-1.15,2.32-1.92,3.93-2.34,4.83-.62,1.8-1.53,3.64-2.7,5.5-1.86,2.55-3.23,5.55-5.16,8.01-1.03,1.31-2.11,2.59-3.23,3.83-.72.79-2.22,1.85-2.51,2.92-.09.33.15.77.49.71.12-.02.22-.09.31-.16,1.82-1.32,3-3.36,5.26-3.62.31-.04.68-.09,1.09-.16,2.01-.2,3.63-.01,4.88.57,1.25.59,2.29,1.68,3.12,3.27.76,1.66,1.14,3.53,1.14,5.61,0,1.87.29,4.07.88,6.6.59,2.53,1.23,4.42,1.92,5.66.42.76.88,1.21,1.4,1.35.52.14,1.57.1,3.17-.1,1.89-.25,3.44-.59,4.65-1.02,3.15-1.68,5.7-3.28,7.59-4.8,2.05-1.58,3.83-1.6,3.85,1.18ZM90.79,47.26c-1.04,2.15-1.87,4.4-2.47,6.72-.79,3.03-1.98,5.66-3.07,8.57-.29.78-.09,2.17.92,1.17,2.54-2.52,3.06-5.47,4.65-8.45,1.55-2.91,2.62-6.15,3.43-9.34.32-1.27,2.47-4.75,1.24-5.84-.31-.28-.71-.14-1.19.42-.65.74-1.05,1.74-1.45,2.62-.22.49-.45.97-.7,1.45-.45.89-.92,1.77-1.36,2.68Z"/>
        <path class="cls-1" d="M161.66,87.1c.01,1.45-.83,2.8-2.5,4.03-.62.45-1.32.88-2.09,1.28-.17.09-.34.19-.5.28-.48.29-.98.58-1.68.63-1.47.09-3.14-.81-4.08-1.69-.44-.41-.74-.94-1.03-1.45l-.2-.36c-.83-1.41-1.5-1.7-2.57-1.15-1.04.55-1.74,2.07-2.36,3.42-.35.76-.68,1.47-1.06,2.02-.9,1.3-1.66,2.03-2.33,2.23-.8.38-1.97,1.05-3.41,1.97-1.8,1.08-3.5,1.66-5.07,1.71-1.82.17-3.18.37-4.03.6-.27.04-.52.07-.76.07-.48,0-.92-.09-1.31-.26-.56-.25-1.36-.87-2.46-1.9-1.15-1.09-1.91-2.02-2.34-2.85-.43-.83-.84-2.24-1.26-4.33-.7-3.35-.88-6.07-.53-8.08.36-2.02,1.4-4.41,3.11-7.12,2.11-3.4,4.15-5.9,6.07-7.43,1.92-1.54,4.31-2.65,7.09-3.3,1.35-.28,2.54-.79,3.54-1.52,1.67-1.05,3.12-1.45,4.34-1.2,1.22.25,2.61,1.2,4.24,2.9.83.95,1.43,1.7,1.79,2.24.37.55.63,1.1.79,1.62.16.53.23,1.27.23,2.24,0,3.29.03,6.5.38,9.68.32,2.91,1.47,3.93,3.54,5.69l.15-.1c.62-.42,1.27-.86,1.87-1.33,1.34-1.03,2.52-1.39,3.34-.99.71.34,1.07,1.16,1.08,2.44ZM142.33,81.1c-.21-.48-.81-1.21-1.76-2.17-1.54-1.54-2.29-2.76-2.29-3.74,0-.64-.22-1.41-.66-2.29-.44-.88-.88-1.49-1.29-1.8-.29-.2-.56-.3-.82-.3-.16,0-.32.04-.48.12-.34.17-1.11.76-2.88,2.6-1.26,1.26-2.45,2.88-3.53,4.82-1.09,1.95-1.9,3.81-2.42,5.52-.5,1.66-.59,2.88-.28,3.61.36.67.58,1.83.64,3.53.11,1.28.29,2.23.54,2.8.23.53.56.88,1.04,1.08.5.21,1.36.32,2.53.32.57,0,1.04-.01,1.42-.04.36-.03.7-.08,1.04-.17.32-.08.63-.2.92-.36.31-.17.64-.37.98-.59.33-.22.72-.53,1.19-.94,1.75-1.41,2.77-2.53,3.04-3.34.24-.9.79-1.86,1.64-2.83.77-.78,1.27-1.97,1.49-3.58h0c.16-1.04.14-1.79-.06-2.25ZM143.86,69.62c-.12.08-.21.18-.28.31-.15.25-.33.91.03,2.88.25,1.37.47,1.86.58,2.04.08-.21.21-.78.21-2.28,0-2.13-.32-2.84-.55-2.95Z"/>
        <path class="cls-1" d="M201.95,89.15c.03,2.56-3.44,4.46-5.22,5.68-1.11.76-2.25,1.38-3.44,1.87-1.79.83-7.66,2-10.46,2-3.86,0-11.94-4.53-11.95-4.08-.28.49-2.09-1.53-5.62,2.91-2.97,3.74-3.03,6.6-5.1,10.67-2.03,3.99-2.08,5.73-4.76,8.96-.69.83-1.25,1.34-1.66,1.51-.42.17-1.07.09-1.97-.26-2.4-.93-3.23-5.52-2.67-7.87.53-2.21,2.49-3.92,3.33-6.06.83-2.09,1.04-4.4,1.74-6.54.94-2.84,2.62-5.38,3.65-8.19,1.82-4.97.78-10.25,3.43-14.9,1.27-2.23,3.51-6.96,6.24-7.75,3.43-.99,5.06,1.9,3.49,4.57-1.18,2.01-1.42,2.94-.73,2.8.69-.21,1.83-1.11,3.42-2.7,1.87-1.87,3.62-3.29,5.24-4.26,1.63-.97,3.51-1.66,5.66-2.08,2.08-.35,3.15-.59,3.22-.73.21-.07.4.04.57.31.17.28.34.67.52,1.19.17.52.31,1.11.42,1.77.1.66.21,1.35.31,2.08.1.73.16,1.4.16,2.03-.07,6.51-1,10.73-2.8,12.67-1.11,1.18-1.97,2.32-2.6,3.43-.21.42-.44.69-.68.83-.24.14-.45.19-.62.16-.17-.03-.42,0-.73.1-.31.1-.61.33-.88.67-.62.69-1.32,1.04-2.08,1.04-.62.07-1.4.4-2.34.99-.93.59-1.4,1.06-1.4,1.4,0,.14.24.33.73.57.48.24,1.07.46,1.77.67.69.21,1.42.38,2.18.52.76.14,1.39.21,1.87.21.95,0,1.92-.16,2.89-.37,1.58-.67,3.33-1.12,4.47-1.71,3.6-1.87,6.44-3.64,8.52-5.3,2.05-1.58,3.83-1.6,3.86,1.18ZM173.48,88.8c1.04,0,2.68-.97,4.94-2.91,2.25-1.94,3.65-3.56,4.21-4.88.62-1.52.97-3.17,1.04-4.93.07-1.77-.17-3.17-.73-4.21-.55-.97-1.11-1.37-1.66-1.19-.56.17-1.77,1.16-3.64,2.96-1.73,1.59-3.36,3.6-4.88,6.02-1.52,2.43-2.29,4.19-2.29,5.3.07.9.43,1.77,1.09,2.6.66.83,1.3,1.25,1.92,1.25Z"/>
      </g>
      <g>
        <path class="cls-2" d="M66.6,7.82l1.59-.12c-.04-.07-.45-.07-1.59.12Z"/>
        <path class="cls-2" d="M70.97,147.02c-.13,0-.27.01-.38.01.27,0,.35,0,.38-.01Z"/>
        <path class="cls-2" d="M127.91,6.51s-.06,0-.08,0c-.13.02-.28.04-.4.06l.48-.06Z"/>
        <path class="cls-2" d="M49.02,17.01c10.2-2.24,16.78-3.19,23.41-4.19,6.64-.94,13.37-1.9,24.1-3.42,10.25-1.17,21.26-2.33,31.3-2.89,4.75-.87,13.17-.38,18.76-.57l2.14.48c.96-.02,2.01-.01,3.06.04,1.04.07,2.08.2,3.03.4l-.13.09c1.44.01,2.95.21,4.28.37,1.32.21,2.47.4,3.18.45l-.14.08,3.41.62-.61.03c4.92.72,9.87,2.13,13.97,3.92l-.19-.54c1.12.45,2.1.97,3.05,1.38.95.42,1.82.81,2.63,1.22.82.39,1.6.75,2.35,1.1.74.38,1.45.74,2.16,1.1,2.82,1.44,5.48,3.01,8.84,5.78h-.16c4.76,2.81,7.95,5.89,10.85,9.17,2.9,3.31,5.61,6.76,9.27,11.11-.91-1.09.16.63,0,.59,3.04,4.23,5.62,9.17,6.38,8.88.85,1.71,1.07,2.47,1.13,2.84.05.37-.11.38-.16.68.33-.18,1.82,2.81,2.73,5.64l-.58-1.25c1.01,2.66,1.76,5.4,2.41,8.16.14-.6.22-1.19.32-1.79.44,2.24.2,2.58.11,2.86-.14.29-.13.54.23,2.66l.57-.14c.22,1.56.22,2.97.24,4.29-.07,1.32-.12,2.55-.31,3.76-.17,1.21-.36,2.4-.65,3.64-.22,1.25-.61,2.53-.93,3.95-.62,2.96-1.55,5.86-2.77,8.66-1.25,2.79-2.82,5.47-4.69,7.98-3.71,5.06-8.46,9.48-13.62,13.32-10.39,7.67-22.26,12.99-33.72,15.97l-1.13-.14c-.31-.25-1.81.41-3.38,1.1-.78.34-1.58.69-2.25.93-.67.24-1.22.33-1.47.24l-2.63.9c-.78.06-2.41.3-1.1-.14-2.49.55-2.54.65-4.32,1.17l-2.78.1c-9.99,1.42-18.49,3.08-29.2,3.62-6.45.01-15.72.36-25.17.64-9.47.28-19.06.76-25.98.68-9.75.13-20.32-1.51-29.84-5.55-4.71-2.02-9.12-4.67-13.14-7.72-3.99-3.08-7.65-6.47-10.95-10.02-.32-.55-1.51-1.69-1.56-1.64-1.79-2.37-3.46-4.82-4.94-7.39-1.46-2.58-2.81-5.23-3.94-7.98,0,0-.15-.3-.36-.88-.22-.57-.55-1.41-.95-2.45-.74-2.1-1.72-5.06-2.51-8.51-.79-3.44-1.38-7.36-1.6-11.25-.24-3.89-.09-7.76.26-11.09.34-3.34.86-6.14,1.17-8.01.32-1.86.32-2.82-.21-2.39-.49.45-1.65,2.24-3.04,6.14-1.32,3.9-2.93,10-2.85,18.87l-.19-.46c.28,5.25,1.08,9.5,2.13,13.23,1.06,3.73,2.42,6.95,4.21,10.09-.18.7.72,2.67,1.84,4.7,1.13,2.03,2.53,4.08,3.07,5.19l-.19-.16c2.02,2.51,3.84,5.23,5.83,7.84,2.01,2.58,4.2,5.03,6.7,6.89-.22-.11-.48-.03-1.53-.99.42.38.87.77,1.32,1.17.47.38.95.77,1.42,1.16.93.79,1.91,1.51,2.77,2.16,1.71,1.32,3.06,2.25,3.04,2.58,4.54,2.96,10.5,5.93,16.25,7.57,5.73,1.76,11.16,2.5,14.58,2.55l-.48.08c1.96-.03,3.2.12,4.49.25,1.3.15,2.65.31,4.8.31.23.08.53.14.48.16,4.21-.25,12.17.3,15.52.02l.22.33,8.23-.17-3.08-.03c1.06-.94,6.23.51,12.19-.21,5.6.01,11.28-2.2,17.08-2.03,2.74-.56-2.4.81,1.72.29.16.47-1.92.39-.83.72,2.03-.2,3.7-.22,5.49-.21,1.79,0,3.71-.02,6.2-.42l.24.35c1.62-.31,3.21-.5,4.74-.64,1.53-.17,3.01-.28,4.42-.37,2.83-.16,5.38-.44,7.5-1.07,3.34-.62,4.5-.6,5.7-.58,1.19-.01,2.43,0,5.84-1.08l2.81-.12c1.5-.3,1.99-.57,2.53-.83.54-.25,1.13-.5,2.78-.84-.12.36,4.19-.89,2.36-.07,1.89-.38,3.76-.87,5.63-1.56,1.87-.67,3.79-1.31,5.74-2.14,1.94-.83,3.95-1.69,6.08-2.52,2.09-.95,4.29-1.89,6.7-2.78.85-.76,2.42-1.73,3.94-2.61,1.52-.89,3.01-1.69,3.56-2.37.37.09,8.65-5.51,4.13-1.91-.39.31-1.13.78-1.14.65l-.38.68c1.32-.64,2.53-1.35,3.67-2.09,1.12-.79,2.16-1.62,3.17-2.5,2.02-1.76,3.91-3.64,6.08-5.61-1.34,1.11-3.07,2.62-2.07,1.43,1.36-1.17,2.69-2.41,3.96-3.7-.18.35-.38.69-.58,1.02,1.96-1.87,3.82-3.88,5.54-6.04l-.99.67c1.31-1.52,2.27-2.51,3.16-3.66.44-.58.88-1.17,1.28-1.92.43-.73.83-1.6,1.23-2.69.68-1.97-2.22,3.17-.37-.67,1.32-2.35,2.67-5.5,3.66-8.94,1-3.44,1.57-7.21,1.66-10.66-.44.63-.36-1.22-.54-3.1l.37-.24c-.47-3.61-.4-4.28-.27-4.96.1-.67.34-1.39-.57-4.89l.38.57c-.37-.58-.75-1.15-1.16-1.7-1.09-3.05-1.23-3.89-1.32-4.87-.05-.49-.15-.98-.43-1.76-.28-.78-.72-1.85-1.62-3.41,1.06,2.6-.26,1.5-1.41-1.72l.68.66c-.84-1.72-1.2-2.24-1.68-3.42.67.94.74.32-.55-2.18l1.23,1.5c-.5-.75-.96-1.51-1.48-2.24l-1.56-2.17c-1.62-3.79-5.68-8.87-6.36-10.44,0,0-.32-.45-.82-1.14-.51-.69-1.26-1.58-2.04-2.52-.77-.96-1.67-1.88-2.45-2.66-.79-.78-1.47-1.41-1.93-1.66,1.5,1.01-1.84-2.51-.58-1.82-.48-.33-1.13-.88-1.92-1.5-.79-.61-1.68-1.33-2.56-2.08-.88-.75-1.81-1.45-2.6-2.14-.79-.69-1.48-1.31-1.96-1.79l.44.27c-3.81-3.26-7.56-5.41-11.21-7.35-.92-.47-1.84-.94-2.76-1.4-.93-.43-1.87-.87-2.81-1.31-.93-.47-1.9-.87-2.88-1.31-.98-.43-1.95-.94-2.99-1.36.23.54-4.13-1.32-3.21-.39-4.44-1.23-8.41-2.5-11.77-3.34-1.67-.42-3.19-.73-4.5-.83-1.31-.13-2.42-.07-3.29.25-2.05-.24-3.26-.45-4.21-.67-.96-.23-1.67-.44-2.73-.56l.99-.02c-3.87-.24-6.36-.32-8.61-.36-2.24-.06-4.23-.09-7.1-.09-2.85.2-3.28.98-8.37.99,1.63-.38-.45-.25-2.35-.15,1.21-.11,1.58-.25-.92-.33-.35.12-.89.21-1.39.28-.02-.02-.12-.04-.07-.07-3.16.31-2.6.37-1.13.33-.07.05.06.11.52.17-3.31-.23-9.14.67-9.58.17-9.5.91-16.2,2.27-24.02,3.52-.92-.16.88-.65,3.15-1.05-1.86.27-3.71.55-5.56.85,0-.41,3.17-.68,4.88-.98-6.74.22-13.59,2.56-21.41,3.35l-1.55.6-.47.03c.05.16-1.64.71-2.77.98-1.15-.13-.08-.83-3.89-.05-3.09.25-8.53,1.93-12.42,3.01,2.13-.42,1.49-.08.61.25-1.89.44-3.07.36-4.5.88l-.3-.41c.85.22-4.84,1.76-5.47,2.2-1.18-.03,2.84-1.16,3.25-1.52-3.81,1.06-4.74,1.43-5.69,1.73-.94.33-1.9.59-5.6,2.13-3.77,2.05.88.08-.82,1.29-3.38,1.63-6.41,3.65-9.98,6.05l1.34-.48c-2.71,2.21-4.66,4.19-6.36,6.01-1.67,1.84-3.14,3.49-4.65,5.3-3.31,5.59-5.1,10.26-6.42,13.82-1.28,3.58-2.02,6.11-2.43,7.79-.81,3.36-.28,3.32.8,1.77,1.08-1.55,2.69-4.58,4.08-7.16,1.38-2.59,2.57-4.71,2.57-4.71,2.44-4.21,4.7-7.74,7.08-10.78,2.37-3.05,4.81-5.66,7.67-7.94,5.72-4.58,13.25-8.02,24.72-10.83Z"/>
      </g>
    </g>
  </g>
</svg>