<?xml version="1.0" encoding="UTF-8"?>
<svg id="Layer_2" data-name="Layer 2" xmlns="http://www.w3.org/2000/svg" viewBox="0 0 441.91 149.54">
  <defs>
    <style>
      .cls-1 {
        fill: #000;
      }

      .cls-1, .cls-2 {
        stroke-width: 0px;
      }

      .cls-2 {
        fill: #202020;
      }
    </style>
  </defs>
  <g id="Layer_1-2" data-name="Layer 1">
    <g>
      <g>
        <path class="cls-1" d="M103.8,93.45c.03,2.39-3.33,5.13-5.38,5.86-2.51.9-5.32-1.91-5.32-1.91-.18,0-5.85-4.89-8.22-3.76-2.2,1.06-4.11,5.1-5.69,7.01-.83,1-1.54,1.77-2.13,2.29s-1.3.99-2.13,1.4c-1.52.76-3.33,1.11-5.4,1.04-2.07-.07-3.98-.52-5.71-1.35-1.94-.97-3.36-1.44-4.26-1.4-.9.04-1.59.51-2.08,1.4-.34.69-.79,1.11-1.35,1.25-.56.14-1.77.1-3.64-.1-1.52-.14-2.77-.35-3.74-.62-13.73-3.9-11.55-16.56-4.67-25.81.9-1.21,1.8-1.89,2.7-2.03.28-.07.57-.14.88-.21.31-.07.74-.14,1.3-.21.35,0,.83.56,1.45,1.66.48,1.25.31,3.01-.52,5.3-.97,2.42-1.46,5.44-1.46,9.04,0,2.49.07,4.04.21,4.62.14.59.55.95,1.25,1.09.9.07,2.17-.69,3.79-2.29,1.62-1.59,2.44-2.87,2.44-3.84,0-.69.62-1.45,1.87-2.29,1.38-.97,2.84-2.66,4.36-5.09,1.66-2.63,3.12-4.08,4.36-4.36,2.29-.63,3.71-.19,4.26,1.3.55,1.49.03,3.41-1.56,5.76-1.18,1.66-2.15,3.64-2.91,5.92-.76,2.29-.93,3.71-.52,4.26.21.49,1,.73,2.39.73,1.31,0,3.25-1.36,5.81-4.1,2.56-2.73,4.12-5.11,4.67-7.12.49-2.01,1.21-3.81,2.18-5.4.62-.97,1.19-1.61,1.71-1.92.52-.31,1.28-.47,2.29-.47,4.49,0,2.3,6.94,5.42,9.78.58.53,1.25.94,1.92,1.35,1.94,1.2,3.95,2.43,6.2,2.83.02,0,.04,0,.06.01.53-.29.99-.57,1.29-.79,2.05-1.58,3.83-1.6,3.86,1.18Z"/>
        <path class="cls-1" d="M146.35,95.82c.03,2.56-3.44,4.46-5.21,5.68-.12.08-.25.15-.37.23-.36.26-.74.5-1.03.71-1.36.99-2.68,1.8-4.29,2.28-1.53.46-3.09.67-4.67.83-4.78.49-8.33-.62-10.64-3.32-2.32-2.7-3.96-7.65-4.93-14.85-.28-2.29-.59-3.43-.94-3.43-.28,0-1.94,1.32-4.98,3.95-1.73,1.59-2.96,2.86-3.69,3.79-1.25,1.25-1.76,3.7-2.43,5.3-.33.77-.65,1.55-.98,2.33-.36.85-.72,1.71-1.08,2.56-.85,2.03.29,4.95-2.62,5.39-1.6.24-2.98-.46-4.16-2.13-.76-1.04-1.16-1.82-1.2-2.34-.04-.52.22-1.47.78-2.86.13-.27.26-.57.36-.88,1.19-3.55,1.97-6.18,3.88-9.57,2.28-4.06,1.8-8.63,2.87-12.95,1.17-4.76,2.99-9.65,4.72-14.23,2.77-7.33,3.63-23.99,13.57-26.49,8.35-2.1,6.8,9.37,5.66,13.75-.48,1.73-1.3,3.76-2.44,6.08-1.15,2.32-1.92,3.93-2.34,4.83-.62,1.8-1.52,3.63-2.7,5.5-1.86,2.55-3.23,5.55-5.16,8.01-1.03,1.31-2.11,2.59-3.23,3.83-.72.79-2.22,1.85-2.51,2.92-.09.33.15.77.49.72.12-.02.22-.09.31-.16,1.82-1.32,3-3.36,5.26-3.62.31-.04.68-.09,1.09-.16,2.01-.21,3.63-.01,4.88.57,1.25.59,2.28,1.68,3.12,3.27.76,1.66,1.14,3.53,1.14,5.61,0,1.87.29,4.07.88,6.6.59,2.53,1.23,4.42,1.92,5.66.42.76.88,1.21,1.4,1.35s1.57.1,3.17-.1c1.89-.25,3.44-.59,4.65-1.02,3.15-1.68,5.7-3.28,7.59-4.8,2.05-1.58,3.83-1.6,3.85,1.18ZM113.98,54.55c-1.04,2.15-1.87,4.4-2.47,6.72-.79,3.03-1.98,5.66-3.07,8.57-.29.78-.09,2.17.92,1.17,2.54-2.52,3.06-5.47,4.65-8.45,1.55-2.91,2.62-6.15,3.43-9.34.32-1.27,2.47-4.75,1.24-5.84-.31-.28-.71-.14-1.19.42-.65.74-1.05,1.74-1.45,2.62-.22.49-.46.97-.7,1.45-.45.89-.92,1.77-1.36,2.68Z"/>
        <path class="cls-1" d="M190.84,97.79c.02,2.12-2.84,3.68-4.31,4.7-.91.63-1.86,1.15-2.84,1.55-.3.14-.9.48-1.64.89l-.41.4c-1.26,1.2-3.06,1.94-5.4,2.23-1.49.17-2.65.19-3.47.04-.83-.14-1.96-.56-3.39-1.24-2.17-1.03-3.6-1.86-4.29-2.49-.46-.4-.86-.57-1.2-.51-.34.06-.94.43-1.8,1.11-2.86,2.06-6.26,3.22-10.21,3.48-3.95.26-6.52-.53-7.72-2.36-.74-1.14-1.09-3.4-1.03-6.78.06-3.37.49-5.77,1.29-7.2.69-1.26,1.23-2.19,1.63-2.79.4-.6.79-1.17,1.16-1.72.37-.54,1.02-1.36,1.93-2.44,2.91-3.66,5.22-6.14,6.9-7.46,3.69-2.88,10.83-5.62,15.36-3.29,5.81,3,3.49,12.5,1.07,17.35-.8,1.77-1.4,3.7-1.8,5.79-.4,2.09-.4,3.48,0,4.16.92,1.77,3.83,1.89,8.75.34.2-.05.4-.08.61-.08.21-.09.42-.17.6-.27,2.97-1.54,5.32-3,7.04-4.38,1.69-1.3,3.16-1.32,3.19.97ZM167.31,82.97c.05-.2-.06-.44-.35-.73-.57-.57-1.37-.96-2.4-1.16-1.03-.2-2.03-.16-3,.13-.97.23-2.45,1.16-4.42,2.79-1.97,1.63-3.33,3.05-4.07,4.25-.92,1.37-1.69,2.57-2.32,3.6-.8,1.14-1.34,2.79-1.63,4.93s-.17,3.53.34,4.16c.46.57,1.48.86,3.09.86s3.09-.26,4.46-.77c1.37-.63,2.37-1.6,3-2.92,1.2-2.34,2.12-4.12,2.74-5.32,1.2-2.11,1.8-3.54,1.8-4.29,0-.46.2-.93.6-1.42.4-.48.51-1.01.34-1.59-.23-.74.09-1.34.94-1.8.51-.29.8-.53.86-.73Z"/>
        <path class="cls-1" d="M225.75,98.51c-.25,2.55-3.89,4.07-5.79,5.1-1.18.64-2.38,1.14-3.62,1.5-.48.16-5.86,3.96-8.95,4.98-4.28,1.42-11.68,2.56-15.38-.75-4.5-4.02-4.55-14.58-4.02-20.06.09-.9,2.91-22.42,2.86-22.45-.9-.55-2-.62-3.15-.69-.93-.06-1.88-.08-2.86-.04-2.3.03-3.93-.04-4.89-.21-.96-.17-3.98.26-4.07-.48-.1-.74.19-1.28.85-1.63.72-.27,3.81-3.04,8.65-2.73,3.52.31,5.7.4,6.55.28s1.7-.62,2.56-1.5c1.24-1.19,2.92-4.24,5.05-9.17,2.3-5.33,5.52-13.38,11.13-16.11,10.64-5.18,3.89,5.92,2.04,11.25-.3.87-.55,1.89-.75,3.05-.19,1.16-.63,2.34-1.32,3.51-1.02,1.77-1.97,3.41-2.83,4.92-.87,1.58-1.18,2.52-.93,2.83.24.37,2.6.8,7.07,1.28,3.1.33,4.99.6,5.66.81.67.21.97.66.9,1.35-.09.89-.62,1.26-1.58,1.09-.35-.04-1.08-.04-2.19-.03-1.11.02-2.38.08-3.78.17-1.4.09-2.84.24-4.33.42-1.49.19-2.72.33-3.7.44-1.7.24-5.02,17.3-6.99,23.29-2.37,7.13-2.05,12.04.93,14.72,1.33,1.19,2.59,1.78,3.78,1.76.72,0,1.5-.28,2.33-.77.49-.78,7.44-3.12,7.99-3.33,3.78-1.47,6.79-2.93,9.04-4.37,2.21-1.35,3.98-1.18,3.71,1.58Z"/>
        <path class="cls-1" d="M229.45,33.04l3.18-2.59c.71,0,1.79.41,3.24,1.23,1.45.83,2.3,1.47,2.53,1.95,2.52,6.05,1.89,11.99-1.88,17.81-1.03,1.57-1.95,2.52-2.77,2.83-.83.31-1.91.12-3.24-.59-1.02-.55-1.69-1.57-2-3.06-.31-1.49-.2-3.26.35-5.31.39-1.49.55-2.53.47-3.12-.08-.59-.47-1.28-1.18-2.06-1.26-1.33-1.79-2.47-1.59-3.42.2-.94,1.16-2.16,2.89-3.65Z"/>
        <path class="cls-1" d="M284.35,93.31c.03,2.56-3.44,4.46-5.21,5.69-1.11.76-2.25,1.38-3.44,1.87-.17.08-.42.21-.71.37-1.01,1.06-2.08,2.06-3.41,2.65-1.15.51-2.41.65-3.68.69-1.42.43-2.64.51-3.31-.08-2.75-.26-5.79-.87-8.17.42-.62.34-1.41.49-2.34.47-.94-.03-2.54-.21-4.81-.55-1.37-.18-2.73-.35-4.1-.49-.65-.06-1.92.09-2.46-.26-.92-.6-1.57-2.85-1.9-3.83-.42-1.25-.69-2.55-.8-3.86-.04-.47-.06-.94.04-1.39.15-.75.46-1.77,1.11-2.13.69-.39,1.51-.17,2.2-.76.48-.42.78-1.02,1-1.62.29-.79.46-1.62.51-2.46.03-.5.03-1.02.26-1.46.41-.77,1.3-.95,1.93-1.46.63-.5,1.1-1.2,1.44-1.93.56-1.23.82-2.58,1.17-3.88.48-1.76.89-3.54,1.23-5.32.34-1.79.57-3.31.68-4.56.23-2.89.54-4.59.94-5.11.39-.51,1.15-.75,2.26-.72,1.11.03,2.06.33,2.85.89,1.6,1.14,2.07,4.03,2.66,5.82.75,2.29,1.39,4.63,1.82,7,.7,3.85.73,7.97,2.11,11.68.77,2.06,1.1,3.38.75,5.56-.47,2.91-.44,6.03,3.35,5.71,2.7-.23,4.57-2.02,6.48-3.74,1.8-1.63,3.78-2.88,5.72-4.37,2.05-1.58,3.83-1.6,3.86,1.18ZM257.44,86.01c-1.13-3.4-1.84-5.11-2.13-5.11-.34,0-.62.65-.85,1.96-.28,1.19-.62,2.07-1.02,2.64-.57.8-1.46,2.48-2.68,5.07-1.22,2.58-1.75,4.01-1.57,4.3.23.34.69.7,1.4,1.06.71.37,1.48.65,2.3.85.82.2,1.52.24,2.09.13,2.1-.45,3.33-1.49,3.7-3.11.37-1.62-.04-4.21-1.24-7.79Z"/>
        <path class="cls-1" d="M353.89,94.39c.01,1.45-.83,2.8-2.5,4.03-.62.45-1.32.88-2.09,1.28-.17.09-.34.19-.5.28-.48.29-.98.58-1.68.62-1.47.09-3.14-.81-4.08-1.69-.44-.41-.74-.94-1.03-1.45l-.21-.36c-.83-1.41-1.5-1.71-2.57-1.15-1.04.55-1.74,2.07-2.36,3.42-.35.75-.68,1.47-1.05,2.02-.9,1.3-1.66,2.03-2.33,2.23-.8.38-1.97,1.05-3.41,1.97-1.8,1.08-3.5,1.66-5.07,1.71-1.82.17-3.18.37-4.03.6-.27.04-.52.07-.76.07-.48,0-.92-.09-1.31-.26-.56-.25-1.36-.87-2.46-1.9-1.15-1.09-1.92-2.02-2.34-2.85-.43-.83-.84-2.24-1.26-4.33-.71-3.35-.88-6.07-.53-8.08.36-2.02,1.4-4.41,3.11-7.12,2.11-3.4,4.15-5.9,6.07-7.43,1.92-1.54,4.31-2.65,7.09-3.3,1.35-.28,2.54-.79,3.54-1.52,1.66-1.05,3.12-1.45,4.34-1.2,1.22.25,2.61,1.2,4.24,2.9.83.95,1.43,1.7,1.79,2.24.37.55.63,1.1.79,1.62.16.53.23,1.27.23,2.24,0,3.29.03,6.5.38,9.68.32,2.91,1.47,3.93,3.53,5.69l.15-.1c.62-.42,1.27-.86,1.87-1.32,1.34-1.03,2.52-1.39,3.34-.99.7.34,1.07,1.16,1.08,2.44ZM334.56,88.4c-.21-.48-.81-1.21-1.76-2.17-1.54-1.54-2.29-2.76-2.29-3.74,0-.64-.22-1.41-.66-2.29-.44-.88-.88-1.49-1.29-1.8-.29-.2-.56-.3-.82-.3-.16,0-.32.04-.48.12-.34.17-1.11.76-2.87,2.6-1.26,1.26-2.45,2.88-3.53,4.82-1.09,1.95-1.9,3.81-2.42,5.52-.5,1.66-.59,2.87-.28,3.61.37.66.58,1.83.64,3.53.11,1.28.29,2.23.54,2.8.23.53.56.88,1.04,1.08.5.21,1.36.32,2.53.32.57,0,1.04-.02,1.41-.04.36-.03.71-.08,1.04-.17.32-.08.63-.2.92-.36.31-.17.64-.37.98-.59.33-.22.72-.52,1.19-.93,1.75-1.41,2.77-2.54,3.04-3.34.24-.9.79-1.86,1.64-2.83.77-.77,1.27-1.97,1.49-3.58h0c.16-1.04.14-1.79-.06-2.25ZM336.09,76.91c-.12.08-.21.18-.28.31-.15.25-.33.91.03,2.88.25,1.37.47,1.86.58,2.04.08-.21.21-.78.21-2.28,0-2.13-.32-2.84-.55-2.95Z"/>
        <path class="cls-1" d="M356.92,77.57c.25-.3.51-.59.77-.87,1-1.06,3.58-2.17,5.01-1.26.78.5.43,2.62,1.14,2.73.32.05,1.1-.37,2.32-1.25,2.14-1.52,5.54-2.77,10.18-3.74,1.87-.48,3.08-.67,3.64-.57.55.1,1.25.54,2.08,1.3,1.11,1.04,1.68,2.34,1.71,3.89.03,1.56-.47,3-1.51,4.31-.83,1.18-1.87,3.5-3.12,6.96-1.25,3.46-1.87,5.85-1.87,7.17,0,.9.31,1.91.93,3.01.62,1.11,1.38,2.03,2.29,2.75.9.73,1.73,1.09,2.49,1.09,1.11,0,3.46-.93,7.06-2.8,3.6-1.87,6.44-3.64,8.52-5.3,1.52-1.18,2.61-1.73,3.27-1.66.66.07.99.76.99,2.08,0,.55-.24,1.19-.73,1.92-.49.73-1.14,1.47-1.97,2.23-.83.76-1.8,1.52-2.91,2.28-1.11.76-2.25,1.39-3.43,1.87-3.12,1.46-5.33,2.49-6.65,3.12-2.36,1.11-4.43,1.42-6.23.93-1.8-.48-3.91-1.94-6.33-4.36-1.94-1.93-3.08-3.27-3.43-3.99-.35-.73-.52-2.13-.52-4.21,0-2.98.52-6.06,1.56-9.24.97-3.25,1.35-5.02,1.14-5.3-.28-.27-2.16,1.23-5.66,4.52-3.5,3.29-6.92,6.77-10.28,10.44-3.36,3.67-5.04,5.78-5.04,6.34,0,.49-.29,1-.88,1.56-.59.56-1.3,1-2.13,1.35-.83.35-1.59.45-2.29.31-1.04-.14-1.77-.97-2.18-2.49-.35-1.04-.4-1.96-.16-2.75.24-.79,1.02-2.2,2.34-4.21,3.33-5.32,5.82-13.24,9.88-18.15Z"/>
      </g>
      <g>
        <path class="cls-2" d="M316.09,145.53l-2.6.04c.05.08.71.09,2.6-.04Z"/>
        <path class="cls-2" d="M288.87,7.62c.2-.03.43-.07.61-.09-.43.05-.57.08-.61.09Z"/>
        <path class="cls-2" d="M215.31,143.35c.06,0,.1,0,.14,0,.22-.01.47-.03.67-.04l-.81.04Z"/>
        <path class="cls-2" d="M346.83,137.04c-17.14,1.97-28.1,2.45-39.17,3.21-5.54.3-11.12.58-17.54.99-3.21.16-6.64.34-10.38.52-1.87.1-3.82.21-5.86.33-2.04.09-4.17.19-6.41.29-17.08.65-35.31,1.04-52.02.97-7.94.6-21.94-.35-31.33-.2l-3.62-.51c-3.24.03-7.04.04-10.28-.35l.21-.09c-4.84,0-10.27-.48-12.68-.48l.21-.09c-1.96-.09-3.91-.2-5.86-.34l1.02-.08c-4.21-.16-8.48-.4-12.66-.68-4.17-.27-8.23-.71-12.04-1.1l.59.49c-8.13-.92-13.69-1.46-19.07-1.92-5.37-.43-10.53-1.01-17.83-2.17l.21-.08c-4.67-.24-8.82-.75-12.73-1.28-3.91-.55-7.57-1.09-11.24-1.78-3.67-.66-7.35-1.33-11.32-1.94-3.93-.59-8.12-1.22-12.84-1.93,2.33.36-.94-.43-.73-.49-4.25-.86-8.5-2.08-11.66-3.16-1.57-.55-2.89-1.01-3.85-1.35-.96-.29-1.55-.43-1.68-.26-.68-.37-1.25-.69-1.74-.96-.48-.29-.86-.56-1.18-.77-.63-.44-1-.71-1.21-.92-.4-.43-.25-.5-.47-.87-.07.14-1.28-.44-2.74-1.65-.78-.56-1.54-1.34-2.38-2.15-.43-.39-.78-.87-1.17-1.31-.37-.46-.8-.89-1.12-1.38.45.57.98,1.06,1.47,1.6-2.99-3.35-5.04-7.47-6.49-11.86.07.93.13,1.88.25,2.81-.62-1.75-.84-2.78-.94-3.42-.1-.64-.07-.88-.05-1.11.07-.47,0-.85-.82-4.32l-.56.21c-.97-5.1-1.18-9.34-1.29-13.43-.04-4.07.11-8.09,1.25-12.56.55-2.31,1.37-4.51,2.62-6.43,1.24-1.93,2.91-3.68,4.84-5.27,1.92-1.6,4.08-3.07,6.34-4.5,2.29-1.4,4.58-2.81,6.88-4.21,9.31-5.43,19.12-10.15,29.14-14.11,10.03-3.96,20.27-7.18,30.44-9.72,10.18-2.51,20.3-4.31,30.1-5.56l1.79.18c.43.28,3.07-.42,5.84-.99,2.76-.6,5.62-1.21,6.41-1.01,1.51-.29,3.03-.53,4.54-.79,1.3-.02,4.02-.19,1.76.2,4.23-.43,4.33-.52,7.36-.98h4.58c16.76-.97,31.03-2.26,48.77-2.51,10.66.16,26.03-.02,41.66-.51,15.62-.47,31.49-1.47,43.07-2.53,8.13-.78,16.59-1.65,25.23-2.57,8.63-.96,17.38-2.06,26.14-2.86,17.47-1.64,35.07-1.89,50.69,1.96.49.19,1.41.39,2.19.59.78.21,1.44.35,1.44.31,9.31,3.08,18.16,7.79,25.11,14.51,0,0,.1.09.3.27.18.19.45.47.79.83.67.74,1.75,1.73,2.85,3.16,2.33,2.76,5.22,6.91,7.34,12.25,2.18,5.32,3.68,11.71,4.64,18.23,1,6.5,1.66,13.09,2.57,18.82.87,5.73,2.06,10.57,3.1,13.65,1.12,3.08,1.85,4.42,1.91,3.38.04-.52-.08-1.65-.37-3.46-.24-1.82-.6-4.34-.94-7.67-.31-3.34-.6-7.47-.86-12.55-.28-5.08-.51-11.1-1.43-18.22l.26.73c-1.32-8.41-3.48-15.34-6.74-20.98-3.21-5.65-7.18-10.02-11.89-13.7-.1-.24-.35-.57-.7-.97-.37-.38-.86-.81-1.43-1.29-.57-.48-1.22-1.01-1.93-1.55-.74-.5-1.52-1.02-2.31-1.56-.79-.55-1.63-1.04-2.46-1.5-.83-.47-1.64-.93-2.4-1.37-1.56-.78-2.91-1.5-3.79-2.01.13.03.25.06.37.1-4.88-1.99-9.89-3.96-15.03-5.47-5.12-1.52-10.37-2.56-15.41-2.73.39-.01.63-.3,2.94,0-7.32-.92-17.27-.56-17.82-1.05-8.7.21-19.02,1.2-28.43,2.49-9.42,1.27-17.96,2.62-23.33,3.58l.73-.22c-3.05.6-5.05.84-7.14,1.05-2.09.19-4.28.32-7.73.77-.38-.03-.87-.02-.8-.06-6.7,1.1-19.7,1.45-25.16,1.86l-.37-.32c-4.49.24-8.99.4-13.48.57l5.04-.1c-1.72.99-10.22-.23-20,.56-9.17.07-18.57,2.24-28.12,1.97-4.54.51,3.99-.78-2.8-.31-.23-.48,3.17-.36,1.41-.71-6.67.36-10.96-.26-19.19.3l-.35-.36c-10.72.99-20.31.32-27.44,1.41-11.06,1.09-7.53-.62-19,1.16l-4.54-.03c-4.95.44-3.46,1-8.95,1.44.15-.18-1.59-.02-2.96.09-1.38.11-2.39.23-.81-.17-12.45,1.25-24.91,4.62-41.03,8.01-3.32,1.43-11.35,3.52-13.76,4.76-.25-.06-4.19,1.28-6.98,2.18-1.4.43-2.49.84-2.72.86-.22.04.41-.39,2.58-1.26.74-.3,2.09-.76,2.03-.62l.94-.71c-4.6,1.13-8.55,2.85-12.48,4.53-1.95.88-3.86,1.85-5.84,2.78-.99.46-1.99.92-3.01,1.4-1.01.49-2.04.99-3.09,1.5,2.52-1.14,5.9-2.61,3.75-1.4-2.63,1.19-5.22,2.47-7.84,3.7l1.49-1.06-2.93,1.37-2.87,1.5c-1.91,1.01-3.84,1.98-5.73,3.02.57-.21,1.16-.36,1.74-.54-2.81,1.46-4.72,2.45-6.72,3.48-1.99,1.06-4.01,2.21-6.89,4.62-1.27,1.14.07.28,1.03-.26.97-.52,1.53-.88-1.23,1.2-1.79,1.27-3.79,2.83-5.7,4.9-1.92,2.04-3.64,4.71-4.77,7.62-1.14,2.91-1.74,6.03-1.98,9.04-.24,3.02-.16,5.97.05,8.72.34-1.06.55,1.91,1.02,4.85l-.33.39c.99,5.68,1.09,6.78,1.04,7.86,0,.54,0,1.09.17,2.22.21,1.12.55,2.84,1.57,5.68-.2-.31-.37-.62-.56-.94.54.94,1.15,1.86,1.75,2.76,1.11,2.48,1.95,4,2.51,5.13.58,1.12.9,1.84,1.28,2.57.36.74.8,1.5,1.68,2.64.46.55,1.03,1.2,1.75,1.98.78.72,1.7,1.61,2.92,2.53-1.79-1.62-1.99-2.23-1.32-1.79.67.43,2.27,1.78,4.55,3.57-.46-.2-.95-.38-1.4-.6,2.62,1.92,3.63,2.33,5.41,3.5-1.72-.86-1.2.06,3.06,2.12-1.03-.29-2.02-.7-3.03-1.07,2.73,1.32,5.56,2.26,8.36,3.1,3.11,1.38,7.31,2.55,11.02,3.37,3.72.83,6.95,1.38,8.24,1.87,0,0,3.48.66,7.33,1.22,3.86.58,8.13,1.15,9.75,1.12-2.83-.08,4.78,1.21,2.55,1.28,3.65.11,14.31,1.25,18.51,2.21l-.81-.05c15.71,2.35,27.01,2.62,41.15,4.37-.61-.49,6.86.41,5.06-.31,3.68.21,7.18.46,10.46.75,3.27.32,6.32.62,9.08.89,5.51.5,9.87.71,12.57.02,6.69.31,7.9.83,11.36,1.06l-1.6.02c6.27.2,10.32.33,13.96.45,3.64.1,6.88.19,11.54.31,4.65-.03,5.4-.83,13.73-.55-2.7.29.71.27,3.82.3-1.99.03-2.61.14,1.48.39.58-.09,1.47-.14,2.3-.18.03.03.2.05.11.08,5.2-.13,4.3-.23,1.88-.26.12-.05-.08-.11-.83-.19,5.4.38,15.05-.1,15.71.44,15.65-.39,26.81-1.28,39.79-2.14,1.47.2-1.55.61-5.32.91l9.22-.58c-.06.41-5.29.51-8.13.73,5.51.03,11.17-.4,17.05-.91,5.88-.58,12-1.11,18.45-1.33l2.64-.54h.77c-.05-.18,2.81-.64,4.71-.86,1.85.2-.06.82,6.3.26,5.06-.11,14.27-1.54,20.82-2.52-3.55.35-2.43.03-.92-.27,3.17-.38,5.04-.26,7.47-.73l.37.43c-1.3-.26,8.21-1.6,9.35-1.99,1.85.08-4.86,1.03-5.62,1.38,6.35-.92,7.93-1.19,9.52-1.45,1.58-.27,3.17-.49,9.48-1.66,6.67-1.62-1.3-.21,1.84-1.22,2.96-.61,5.86-1.28,8.88-2.03,3.02-.76,6.15-1.61,9.49-2.86-.74.17-1.49.3-2.23.43,5.38-2.08,9.11-4.92,12.22-7.52,3.12-2.64,5.71-5.16,8.55-7.7,56.95-62.15,9.2-15.88,9.2-15.88-6,5.7-11.23,10.85-16.05,15.65-2.4,2.36-4.7,4.52-7.1,6.34-2.41,1.84-4.83,3.27-7.63,4.41-2.79,1.14-5.87,2-9.2,2.79-3.36.78-6.89,1.55-10.62,2.29-7.45,1.49-15.75,2.89-25.48,4.16Z"/>
      </g>
    </g>
  </g>
</svg>